<?xml version="1.0" encoding="UTF-8" standalone="no"?>
<svg
   height="48"
   viewBox="0 0 48 48"
   width="48"
   version="1.1"
   id="svg2"
   xmlns="http://www.w3.org/2000/svg"
   xmlns:svg="http://www.w3.org/2000/svg">
  <defs
     id="defs2" />
  <path
     d="M 0,0 H 48 V 48 H 0 Z"
     fill="none"
     id="path1" />
  <path
     d="M 23.99,4 C 12.94,4 4,12.95 4,24 4,35.05 12.94,44 23.99,44 35.04,44 44,35.05 44,24 44,12.95 35.04,4 23.99,4 Z m 13.85,12 h -5.9 c -0.65,-2.5 -1.56,-4.9 -2.76,-7.12 3.68,1.26 6.74,3.81 8.66,7.12 z M 24,8.07 c 1.67,2.4 2.97,5.07 3.82,7.93 H 20.18 C 21.03,13.14 22.33,10.47 24,8.07 Z M 8.52,28 C 8.19,26.72 8,25.38 8,24 8,22.62 8.19,21.28 8.52,20 h 6.75 C 15.11,21.31 15,22.64 15,24 c 0,1.36 0.11,2.69 0.28,4 z m 1.63,4 h 5.9 c 0.65,2.5 1.56,4.9 2.76,7.13 C 15.13,37.87 12.07,35.31 10.15,32 Z m 5.9,-16 h -5.9 C 12.07,12.69 15.13,10.13 18.81,8.87 17.61,11.1 16.7,13.5 16.05,16 Z M 24,39.93 C 22.34,37.53 21.04,34.86 20.18,32 h 7.64 C 26.96,34.86 25.66,37.53 24,39.93 Z M 28.68,28 H 19.32 C 19.13,26.69 19,25.36 19,24 c 0,-1.36 0.13,-2.69 0.32,-4 h 9.36 c 0.19,1.31 0.32,2.64 0.32,4 0,1.36 -0.13,2.69 -0.32,4 z m 0.51,11.12 C 30.39,36.89 31.3,34.5 31.95,32 h 5.9 c -1.93,3.31 -4.99,5.86 -8.66,7.12 z M 32.72,28 C 32.88,26.69 33,25.36 33,24 33,22.64 32.89,21.31 32.72,20 h 6.75 c 0.33,1.28 0.53,2.62 0.53,4 0,1.38 -0.19,2.72 -0.53,4 z"
     id="path2"
     style="fill:#ffffff" />
</svg>
